<?xml version="1.0" encoding="UTF-8" standalone="no"?><!-- Generator: Gravit.io --><svg xmlns="http://www.w3.org/2000/svg" xmlns:xlink="http://www.w3.org/1999/xlink" style="isolation:isolate" viewBox="65.162 43.763 381.676 424.474" width="381.676pt" height="424.474pt"><g><path d=" M 210.444 172.035 C 199.361 188.115 192.675 212.693 190.346 245.728 L 159.976 245.728 C 162.924 215.338 179.76 190.787 210.444 172.035 Z " fill="rgb(33,37,41)"/><path d=" M 301.556 172.035 C 312.639 188.115 319.325 212.693 321.654 245.728 L 352.024 245.728 C 349.076 215.338 332.24 190.787 301.556 172.035 Z " fill="rgb(33,37,41)"/><path d=" M 210.444 340.412 C 199.361 324.332 192.675 299.754 190.346 266.719 L 159.976 266.719 C 162.924 297.108 179.76 321.659 210.444 340.412 Z " fill="rgb(33,37,41)"/><path d=" M 301.556 340.412 C 312.639 324.332 319.325 299.754 321.654 266.719 L 352.024 266.719 C 349.076 297.108 332.24 321.659 301.556 340.412 Z " fill="rgb(33,37,41)"/><path d=" M 266.272 348.451 L 266.272 266.719 L 299.769 266.719 C 296.143 306.833 284.991 334.09 266.272 348.451 Z " fill="rgb(33,37,41)"/><path d=" M 266.272 163.549 L 266.272 245.281 L 299.769 245.281 C 296.143 205.167 284.991 177.91 266.272 163.549 Z " fill="rgb(33,37,41)"/><path d=" M 244.834 348.451 L 244.834 266.719 L 211.338 266.719 C 214.963 306.833 226.115 334.09 244.834 348.451 Z " fill="rgb(33,37,41)"/><path d=" M 244.834 163.549 L 244.834 245.281 L 211.338 245.281 C 214.963 205.167 226.115 177.91 244.834 163.549 Z " fill="rgb(33,37,41)"/><path d=" M 104.025 205.597 L 104.026 389.627 C 104.026 432.936 184.357 457.641 257.685 457.641 C 330.316 457.641 407.975 437.136 407.975 389.627 L 407.975 361.007 M 75.758 248.671 L 104.026 205.597 L 132.295 248.671" fill-rule="evenodd" fill="none" vector-effect="non-scaling-stroke" stroke-width="21.191" stroke="rgb(33,37,41)" stroke-linejoin="round" stroke-linecap="round" stroke-miterlimit="3"/><path d=" M 407.975 306.403 L 407.974 122.373 C 407.974 79.064 327.643 54.359 254.315 54.359 C 181.684 54.359 104.025 74.864 104.025 122.373 L 104.025 150.993 M 436.242 263.329 L 407.974 306.403 L 379.705 263.329" fill-rule="evenodd" fill="none" vector-effect="non-scaling-stroke" stroke-width="21.191" stroke="rgb(33,37,41)" stroke-linejoin="round" stroke-linecap="round" stroke-miterlimit="3"/></g></svg>